<html>
<head>
<meta charset="UTF-8">
<meta name="viewport" content="width=device-width, initial-scale=1.0"/>

<style>
.comment
{
    padding-left: 20px;
    margin-top: 4px;
    margin-right: 4px;
    margin-bottom: 4px;
    border: 2px #000 solid;
}
.submission
{
    border: 4px #00f solid;
    padding-left: 20px;
}
.hidden
{
    display: none;
}
</style>
</head>
<body><div class="submission" id="t3_2w5q5o">
    <p class="userinfo">
        <a href="https://www.reddit.com/u/jay313">jay313</a>
        <span class="score"> | 10 points</span>
        <span class="timestamp"> | Feb 17 2015 04:21:43</span>
    </p>
    <strong>[movie]The Hunger Games:Mockingjay Pt.1</strong>
    <p><a href="https://mega.co.nz/#!ZBNACYjJ!U-bjEE-OpD7jpBTiot1E9XLZ31JK1klDBvBnw15cLFo">https://mega.co.nz/#!ZBNACYjJ!U-bjEE-OpD7jpBTiot1E9XLZ31JK1klDBvBnw15cLFo</a></p>
    <p class="toolbar">
        <a href="https://www.reddit.com/r/megalinks/comments/2w5q5o">permalink</a>
    </p>
</div>
<div class="comment" id="t1_conww36">
    <p class="userinfo">
        <a
        class="toggle_hide_button"
        href="javascript:void(0)"
        onclick="toggle_collapse(this.parentElement.parentElement)">[-]
        </a>
        <a href="https://www.reddit.com/u/atrix2noon">atrix2noon</a>
        <span class="score"> | 3 points</span>
        <span class="timestamp"> | Feb 17 2015 06:35:56</span>
    </p>
    <div class="collapsible">
        <p>Quality?</p>
        <p class="toolbar">
            <a href="https://www.reddit.com/r/megalinks/comments/2w5q5o/_/conww36">permalink</a>
        </p>
        <div class="comment" id="t1_coo30zz">
    <p class="userinfo">
        <a
        class="toggle_hide_button"
        href="javascript:void(0)"
        onclick="toggle_collapse(this.parentElement.parentElement)">[-]
        </a>
        <a href="https://www.reddit.com/u/KopiJahe">KopiJahe</a>
        <span class="score"> | 1 points</span>
        <span class="timestamp"> | Feb 17 2015 13:35:09</span>
    </p>
    <div class="collapsible">
        <p>The file inside:</p>
<blockquote>
<p>The.Hunger.Games.Mockingjay.Part.1.2014.HDRip.XviD.AC3-EVO.avi</p>
</blockquote>
        <p class="toolbar">
            <a href="https://www.reddit.com/r/megalinks/comments/2w5q5o/_/coo30zz">permalink</a>
        </p>
        <div class="comment" id="t1_coo4jh7">
    <p class="userinfo">
        <a
        class="toggle_hide_button"
        href="javascript:void(0)"
        onclick="toggle_collapse(this.parentElement.parentElement)">[-]
        </a>
        <a href="https://www.reddit.com/u/gogogoa">gogogoa</a>
        <span class="score"> | 3 points</span>
        <span class="timestamp"> | Feb 17 2015 14:40:15</span>
    </p>
    <div class="collapsible">
        <p>Additional info:</p>
<blockquote>
<p>Input #0, avi, from 'The.Hunger.Games.Mockingjay.Part.1.2014.HDRip.XviD.AC3-EVO.avi':</p>
<p>Metadata:</p>
<p>encoder         : AVI-Mux GUI 1.17.8.3, Feb 16 201019:42:50</p>
<p>JUNK            : </p>
<p>Duration: 01:57:48.28, start: 0.000000, bitrate: 1838 kb/s</p>
<p>Stream #0.0: Video: mpeg4 (Advanced Simple Profile), yuv420p, 720x304 [PAR 1:1 DAR &gt;45:19], 25 fps, 25 tbn, 25 tbc</p>
<p>Stream #0.1: Audio: ac3, 48000 Hz, 5.1, fltp, 384 kb/s</p>
<p>Metadata:</p>
<pre><code> title           : T3_Audio - English
</code></pre>
</blockquote>
        <p class="toolbar">
            <a href="https://www.reddit.com/r/megalinks/comments/2w5q5o/_/coo4jh7">permalink</a>
        </p>
        
    </div>
</div>
    </div>
</div>
    </div>
</div>

<div class="comment" id="t1_cool8i1">
    <p class="userinfo">
        <a
        class="toggle_hide_button"
        href="javascript:void(0)"
        onclick="toggle_collapse(this.parentElement.parentElement)">[-]
        </a>
        <a href="https://www.reddit.com/u/Hadam10Rose">Hadam10Rose</a>
        <span class="score"> | 2 points</span>
        <span class="timestamp"> | Feb 17 2015 22:32:55</span>
    </p>
    <div class="collapsible">
        <p>cheers mate</p>
        <p class="toolbar">
            <a href="https://www.reddit.com/r/megalinks/comments/2w5q5o/_/cool8i1">permalink</a>
        </p>
        
    </div>
</div>

<div class="comment" id="t1_coo59xm">
    <p class="userinfo">
        <a
        class="toggle_hide_button"
        href="javascript:void(0)"
        onclick="toggle_collapse(this.parentElement.parentElement)">[-]
        </a>
        <a href="https://www.reddit.com/u/fatshady3624">fatshady3624</a>
        <span class="score"> | 1 points</span>
        <span class="timestamp"> | Feb 17 2015 15:06:54</span>
    </p>
    <div class="collapsible">
        <p>Decent quality</p>
        <p class="toolbar">
            <a href="https://www.reddit.com/r/megalinks/comments/2w5q5o/_/coo59xm">permalink</a>
        </p>
        
    </div>
</div>
</body>

<script>
function toggle_collapse(comment_div)
{
    var button = comment_div.getElementsByClassName("toggle_hide_button")[0];
    var collapsible = comment_div.getElementsByClassName("collapsible")[0];
    if (collapsible.classList.contains("hidden"))
    {
        collapsible.classList.remove("hidden");
        button.innerText = "[-]";
    }
    else
    {
        collapsible.classList.add("hidden");
        button.innerText = "[+]";
    }
}
</script>
</html>
